<?xml version="1.0" encoding="UTF-8" standalone="no"?>
<!DOCTYPE svg PUBLIC "-//W3C//DTD SVG 1.1//EN" "http://www.w3.org/Graphics/SVG/1.1/DTD/svg11.dtd">
<svg xmlns="http://www.w3.org/2000/svg" version="1.1" viewBox="0 0 189 189">
<g stroke-width="2.00" fill="none" stroke-linecap="butt">
<path stroke="#918b87" vector-effect="non-scaling-stroke" d="
  M 132.57 6.20
  A 2.28 2.28 0.0 0 0 130.29 3.92
  A 2.28 2.28 0.0 0 0 128.01 6.20
  A 2.28 2.28 0.0 0 0 130.29 8.48
  A 2.28 2.28 0.0 0 0 132.57 6.20"
/>
<path stroke="#918b87" vector-effect="non-scaling-stroke" d="
  M 157.5262 5.2816
  A 0.26 0.26 0.0 0 0 157.2698 5.0180
  L 143.2512 4.8223
  A 0.26 0.26 0.0 0 0 142.9876 5.0786
  L 142.9538 7.4984
  A 0.26 0.26 0.0 0 0 143.2102 7.7620
  L 157.2288 7.9577
  A 0.26 0.26 0.0 0 0 157.4924 7.7014
  L 157.5262 5.2816"
/>
<path stroke="#a09c97" vector-effect="non-scaling-stroke" d="
  M 22.07 18.30
  Q 30.05 18.13 31.75 18.25
  Q 38.76 18.73 37.13 11.99
  A 0.65 0.64 -6.8 0 0 36.50 11.50
  L 17.07 11.56
  A 0.60 0.59 4.5 0 0 16.48 12.06
  L 13.33 31.90
  A 0.95 0.95 16.8 0 0 13.88 32.92
  Q 17.02 34.30 20.71 33.25
  Q 25.84 31.78 28.98 34.49
  Q 31.66 36.82 31.52 41.27
  Q 31.26 49.37 22.53 49.09
  Q 20.83 49.04 18.81 48.06
  Q 17.03 47.20 15.21 46.44
  A 1.06 0.97 39.8 0 0 14.31 46.48
  Q 12.17 47.72 11.18 50.03
  A 0.75 0.73 32.5 0 0 11.37 50.85
  Q 16.24 55.25 22.06 55.44
  Q 33.36 55.80 37.25 46.90
  Q 39.58 41.57 38.36 36.39
  Q 36.92 30.26 30.65 27.77
  Q 28.38 26.87 25.73 26.83
  Q 23.21 26.79 20.67 27.26
  A 0.38 0.37 -1.2 0 1 20.22 26.84
  L 21.45 18.81
  A 0.65 0.60 3.7 0 1 22.07 18.30"
/>
<path stroke="#a09c97" vector-effect="non-scaling-stroke" d="
  M 70.31 44.32
  L 74.06 44.12
  A 0.86 0.85 10.2 0 0 74.79 43.62
  Q 75.49 42.04 75.07 39.36
  A 0.98 0.79 -2.6 0 0 74.15 38.68
  L 70.31 38.56
  A 0.62 0.52 -89.1 0 1 69.81 37.94
  L 69.69 12.06
  A 0.52 0.50 90.0 0 0 69.19 11.54
  L 64.09 11.52
  A 2.08 1.98 -71.3 0 0 62.45 12.38
  L 43.60 38.41
  A 1.34 0.77 -42.8 0 0 43.32 39.31
  L 44.08 43.25
  A 1.40 1.21 -4.5 0 0 45.41 44.23
  L 62.98 44.44
  A 0.53 0.52 0.6 0 1 63.50 44.96
  L 63.50 53.97
  A 0.95 0.88 89.7 0 0 64.39 54.92
  L 69.07 54.88
  A 0.58 0.52 -88.9 0 0 69.59 54.32
  L 69.81 44.82
  A 0.52 0.52 -0.1 0 1 70.31 44.32"
/>
<path stroke="#918b87" vector-effect="non-scaling-stroke" d="
  M 106.14 27.15
  Q 106.56 26.34 106.81 27.23
  L 108.82 34.20
  Q 109.54 36.72 111.99 35.50
  Q 114.73 34.14 116.55 31.03
  Q 117.11 30.07 116.49 30.12
  Q 116.23 30.14 115.97 30.41
  Q 115.10 31.32 114.31 32.31
  Q 112.39 34.76 111.75 32.25
  L 109.37 22.98
  A 1.49 1.43 51.0 0 1 109.45 22.04
  Q 110.75 19.24 112.73 17.37
  A 2.63 2.62 32.3 0 1 115.34 16.79
  Q 118.21 17.71 118.68 15.49
  A 1.34 1.20 37.3 0 0 118.50 14.56
  Q 117.13 12.41 115.06 13.81
  Q 111.53 16.21 109.56 19.73
  Q 108.70 21.26 108.50 19.51
  Q 108.13 16.16 105.80 13.90
  A 0.97 0.95 -28.3 0 0 104.94 13.65
  L 99.93 14.59
  Q 98.99 14.76 99.52 15.14
  Q 99.73 15.28 100.25 15.25
  Q 104.03 15.05 105.01 18.89
  Q 105.67 21.43 106.16 24.01
  A 1.54 1.46 54.4 0 1 106.03 24.95
  Q 104.12 28.86 100.69 32.77
  A 1.22 1.20 -52.2 0 1 99.10 32.98
  Q 96.13 31.00 95.58 33.75
  A 1.24 1.18 -56.7 0 0 95.75 34.68
  Q 96.66 36.01 98.14 35.83
  Q 99.19 35.71 100.46 34.53
  Q 104.02 31.24 106.14 27.15"
/>
<path stroke="#918b87" vector-effect="non-scaling-stroke" d="
  M 125.73 16.14
  Q 125.89 17.42 125.43 18.98
  Q 123.62 25.03 121.96 31.11
  Q 121.40 33.13 121.53 34.07
  Q 121.85 36.44 125.00 35.50
  Q 127.81 34.66 130.09 30.83
  Q 130.46 30.21 129.93 30.24
  A 0.89 0.64 -68.1 0 0 129.35 30.61
  Q 127.85 32.67 126.56 33.31
  Q 125.82 33.68 125.43 32.96
  A 1.42 0.99 -58.8 0 1 125.37 32.02
  L 130.36 14.37
  A 0.58 0.57 -86.2 0 0 129.73 13.63
  Q 126.85 14.09 123.61 14.67
  Q 121.81 14.99 122.74 15.32
  Q 123.31 15.51 125.10 15.57
  A 0.66 0.65 -2.6 0 1 125.73 16.14"
/>
<path stroke="#918b87" vector-effect="non-scaling-stroke" d="
  M 152.39 33.29
  Q 151.19 33.95 151.02 32.71
  Q 150.95 32.19 151.18 31.30
  Q 153.44 22.76 156.06 14.33
  A 0.42 0.42 13.9 0 0 155.74 13.80
  Q 152.81 13.22 151.90 15.77
  Q 151.36 17.31 151.01 15.71
  Q 150.72 14.36 149.20 13.94
  Q 145.85 13.02 143.04 15.03
  Q 136.23 19.89 134.61 27.83
  Q 134.04 30.68 134.60 32.66
  Q 135.57 36.06 139.13 35.71
  Q 141.25 35.51 143.38 33.83
  Q 145.25 32.37 146.76 30.49
  Q 148.44 28.40 147.68 30.97
  Q 145.91 36.92 150.46 35.51
  Q 151.89 35.07 153.07 33.81
  Q 153.91 32.91 155.19 31.44
  Q 155.45 31.14 155.45 30.90
  Q 155.48 30.29 154.89 30.81
  Q 154.04 31.56 153.33 32.44
  Q 152.82 33.06 152.39 33.29"
/>
<path stroke="#918b87" vector-effect="non-scaling-stroke" d="
  M 167.89 21.52
  Q 167.48 22.27 166.91 22.91
  Q 165.41 24.60 165.78 23.47
  Q 167.27 18.95 168.32 14.31
  A 0.38 0.35 -87.3 0 0 167.93 13.84
  L 160.80 15.05
  Q 160.09 15.16 160.75 15.42
  Q 161.32 15.65 162.00 15.50
  Q 164.66 14.91 164.00 17.25
  L 159.14 34.52
  A 0.56 0.53 -73.0 0 0 159.47 35.19
  Q 161.10 35.76 162.32 34.77
  A 1.67 1.20 85.6 0 0 162.81 33.96
  Q 164.71 26.52 169.38 20.42
  Q 171.52 17.63 173.87 16.62
  Q 176.86 15.35 176.00 18.48
  Q 174.21 25.08 172.38 31.64
  Q 171.88 33.42 172.11 34.40
  Q 172.63 36.68 175.56 35.31
  Q 178.32 34.02 180.12 30.74
  A 0.42 0.28 -57.9 0 0 180.11 30.28
  Q 179.94 30.15 179.72 30.46
  Q 178.54 32.04 176.94 33.19
  Q 175.08 34.52 175.75 32.25
  Q 177.62 25.97 179.26 19.62
  Q 179.84 17.39 179.75 16.20
  Q 179.54 13.28 176.82 13.56
  Q 175.06 13.73 173.13 15.27
  Q 169.95 17.82 167.89 21.52"
/>
<path stroke="#a09c97" vector-effect="non-scaling-stroke" d="
  M 128.86 48.29
  L 131.78 45.54
  A 0.38 0.34 -56.2 0 0 131.70 44.92
  L 126.43 43.30
  A 0.57 0.54 -71.1 0 0 125.76 43.65
  Q 122.06 53.32 114.69 59.19
  Q 112.89 60.62 114.76 61.14
  Q 115.24 61.28 115.59 61.63
  Q 117.14 63.20 118.24 61.71
  Q 119.25 60.35 119.30 60.29
  Q 122.53 56.84 125.49 52.83
  A 1.41 1.34 -71.0 0 1 126.59 52.26
  L 160.06 52.55
  A 0.64 0.59 5.5 0 0 160.68 52.08
  Q 160.99 50.54 160.59 49.04
  A 0.64 0.63 -9.7 0 0 159.94 48.59
  Q 144.50 49.48 129.05 48.71
  Q 128.44 48.68 128.86 48.29"
/>
<path stroke="#a09c97" vector-effect="non-scaling-stroke" d="
  M 133.57 55.72
  Q 130.17 55.61 125.70 55.79
  A 0.71 0.60 -0.2 0 0 125.03 56.36
  L 124.88 59.24
  A 0.65 0.41 -1.2 0 0 125.57 59.66
  Q 139.49 58.87 153.42 59.47
  Q 153.51 59.48 154.56 59.65
  Q 156.55 59.99 155.70 56.15
  A 0.62 0.62 82.8 0 0 155.07 55.66
  Q 144.00 56.07 133.57 55.72"
/>
<path stroke="#a09c97" vector-effect="non-scaling-stroke" d="
  M 151.44 67.32
  Q 151.56 78.26 152.75 83.75
  Q 153.91 89.08 156.06 91.69
  Q 158.82 95.02 161.12 91.39
  Q 162.75 88.83 163.74 85.79
  A 1.00 1.00 16.7 0 0 163.06 84.53
  Q 161.73 84.15 160.80 82.93
  Q 160.05 81.94 159.80 83.22
  L 159.11 86.70
  Q 158.73 88.57 158.07 86.71
  Q 154.11 75.60 156.54 63.81
  A 0.66 0.65 -85.5 0 0 155.87 63.02
  Q 137.78 63.79 119.31 63.33
  A 0.68 0.65 9.5 0 0 118.64 63.78
  Q 118.21 65.13 118.64 66.47
  A 0.73 0.65 -7.5 0 0 119.32 66.93
  L 150.93 66.81
  A 0.51 0.50 89.4 0 1 151.44 67.32"
/>
<path stroke="#a09c97" vector-effect="non-scaling-stroke" d="
  M 135.31 84.93
  Q 135.21 78.27 135.25 71.60
  Q 135.25 70.91 135.53 70.46
  Q 135.86 69.94 136.34 69.54
  Q 136.79 69.18 136.25 69.16
  L 131.69 69.02
  A 0.55 0.49 89.9 0 0 131.19 69.58
  L 131.31 85.01
  A 0.97 0.97 -1.5 0 1 130.38 85.99
  L 124.02 86.27
  A 0.50 0.50 -1.1 0 1 123.50 85.77
  L 123.50 74.23
  A 2.05 2.04 67.9 0 1 124.11 72.77
  Q 125.37 71.51 123.74 71.59
  Q 121.78 71.69 119.81 71.79
  A 0.53 0.49 88.9 0 0 119.34 72.32
  L 119.34 89.68
  A 0.46 0.44 87.7 0 0 119.82 90.14
  L 142.19 88.35
  A 0.39 0.37 -86.9 0 1 142.58 88.81
  Q 141.98 91.95 144.76 91.59
  Q 145.21 91.53 145.72 91.69
  Q 147.13 92.15 147.04 90.50
  Q 146.56 82.56 146.79 74.61
  Q 146.81 74.07 147.07 73.59
  Q 147.33 73.11 147.59 72.63
  A 0.31 0.30 13.9 0 0 147.32 72.19
  L 143.06 72.09
  A 0.47 0.46 90.0 0 0 142.59 72.57
  L 142.73 84.20
  A 0.66 0.66 86.7 0 1 142.14 84.87
  L 135.81 85.43
  A 0.50 0.45 87.4 0 1 135.31 84.93"
/>
<path stroke="#a09c97" vector-effect="non-scaling-stroke" d="
  M 67.60 124.10
  L 85.39 154.41
  Q 86.48 156.25 88.65 156.25
  L 102.30 156.25
  Q 102.81 156.25 102.54 155.81
  L 77.77 115.47
  A 0.83 0.81 46.4 0 1 77.78 114.61
  L 101.90 77.75
  Q 102.22 77.25 101.63 77.25
  L 88.85 77.25
  Q 86.99 77.25 86.06 78.77
  L 68.44 107.52
  A 0.31 0.31 -44.7 0 1 67.91 107.52
  L 50.16 78.19
  A 1.50 1.47 -12.9 0 0 49.00 77.48
  Q 41.61 76.90 33.99 77.46
  A 0.30 0.29 71.1 0 0 33.77 77.92
  L 57.25 114.87
  A 1.44 1.44 -45.5 0 1 57.26 116.42
  L 32.76 155.58
  A 0.30 0.30 -71.7 0 0 32.99 156.04
  Q 37.80 156.39 42.63 156.28
  Q 42.70 156.28 44.85 156.40
  Q 47.27 156.54 48.44 154.69
  Q 57.77 139.81 67.04 124.10
  A 0.32 0.32 46.3 0 1 67.60 124.10"
/>
<path stroke="#a09c97" vector-effect="non-scaling-stroke" d="
  M 117.58 130.85
  A 0.73 0.73 -4.6 0 1 118.29 130.02
  Q 134.30 129.63 149.40 129.74
  Q 149.46 129.74 151.09 129.88
  Q 153.89 130.10 154.19 127.19
  Q 154.59 123.25 153.51 118.10
  Q 151.01 106.19 141.69 101.83
  Q 133.24 97.87 123.53 100.34
  Q 116.04 102.25 111.11 108.29
  Q 106.76 113.62 105.29 121.15
  Q 103.62 129.69 106.25 138.25
  Q 111.83 156.45 131.25 157.10
  Q 143.29 157.50 152.97 149.00
  A 1.26 1.16 -39.5 0 0 153.19 147.37
  L 149.80 142.93
  Q 148.54 141.27 146.37 142.15
  Q 144.14 143.06 141.67 144.39
  Q 136.93 146.94 131.79 146.71
  Q 127.76 146.53 124.61 144.66
  Q 120.96 142.49 119.56 138.69
  Q 118.06 134.59 117.58 130.85"
/>
<path stroke="#a09c97" vector-effect="non-scaling-stroke" d="
  M 76.00 173.08
  Q 80.51 170.57 78.26 165.39
  Q 77.11 162.76 74.24 162.29
  Q 67.38 161.18 65.27 167.70
  A 0.84 0.83 13.7 0 0 65.93 168.78
  Q 67.47 169.03 68.11 167.84
  Q 69.00 166.23 69.04 166.18
  Q 71.40 163.49 74.11 164.92
  Q 76.26 166.06 76.30 168.58
  Q 76.36 172.24 72.00 172.48
  A 1.15 0.81 8.9 0 0 71.19 172.88
  Q 70.67 173.66 71.17 174.38
  A 1.13 0.78 -11.2 0 0 72.00 174.74
  Q 74.18 174.79 75.59 176.12
  Q 76.94 177.40 76.84 179.37
  Q 76.69 182.11 73.94 183.19
  Q 70.78 184.43 68.49 182.06
  Q 68.20 181.76 67.73 180.81
  Q 67.40 180.12 66.83 179.62
  A 1.20 1.19 -26.2 0 0 65.94 179.32
  Q 64.14 179.45 64.84 181.18
  Q 66.76 185.94 72.00 185.92
  Q 75.10 185.91 77.21 184.16
  Q 79.28 182.44 79.56 179.63
  Q 79.96 175.65 76.01 173.54
  Q 75.59 173.31 76.00 173.08"
/>
<path stroke="#a09c97" vector-effect="non-scaling-stroke" d="
  M 119.96 173.38
  Q 122.02 171.69 122.56 169.27
  Q 123.12 166.83 121.89 164.88
  Q 120.57 162.78 117.74 162.31
  Q 111.57 161.30 109.33 166.60
  Q 108.97 167.46 109.09 168.07
  Q 109.32 169.25 110.85 168.74
  A 1.04 0.85 -87.1 0 0 111.45 168.08
  Q 112.53 164.68 115.50 164.50
  Q 119.35 164.26 120.00 167.50
  Q 120.70 171.00 117.47 172.20
  Q 117.02 172.36 115.87 172.38
  Q 114.30 172.39 114.56 173.70
  A 1.48 1.48 88.3 0 0 115.79 174.86
  Q 119.92 175.47 120.42 178.30
  Q 120.71 179.93 119.80 181.45
  Q 118.82 183.09 116.94 183.44
  Q 112.62 184.24 110.99 180.16
  A 1.08 0.90 83.5 0 0 110.34 179.54
  Q 108.36 179.02 108.40 180.50
  Q 108.42 181.27 109.03 182.26
  Q 112.11 187.26 118.30 185.51
  Q 122.82 184.23 123.18 179.49
  Q 123.50 175.43 120.03 173.88
  A 0.30 0.29 37.5 0 1 119.96 173.38"
/>
<path stroke="#a09c97" vector-effect="non-scaling-stroke" d="
  M 134.0100 186.1800
  A 12.17 8.40 90.0 0 0 142.4100 174.0100
  A 12.17 8.40 90.0 0 0 134.0100 161.8400
  A 12.17 8.40 90.0 0 0 125.6100 174.0100
  A 12.17 8.40 90.0 0 0 134.0100 186.1800"
/>
<path stroke="#a09c97" vector-effect="non-scaling-stroke" d="
  M 56.56 182.93
  L 56.50 162.92
  A 0.65 0.64 -86.5 0 0 55.94 162.28
  Q 54.26 162.05 53.26 163.05
  Q 52.62 163.70 52.54 163.76
  Q 50.61 165.34 48.71 166.95
  Q 46.55 168.77 48.77 169.60
  A 0.94 0.82 32.7 0 0 49.66 169.47
  L 53.16 166.47
  Q 53.54 166.14 53.54 166.62
  L 53.75 182.85
  A 0.66 0.64 -0.4 0 1 53.09 183.50
  L 49.50 183.50
  A 0.80 0.68 8.9 0 0 48.78 183.94
  Q 48.48 184.72 48.92 185.37
  A 1.08 0.83 -13.1 0 0 49.75 185.75
  Q 53.95 185.75 58.15 185.75
  Q 58.24 185.75 59.34 185.82
  Q 61.47 185.94 60.87 184.03
  A 0.74 0.69 -7.6 0 0 60.19 183.55
  L 57.07 183.45
  A 0.52 0.52 0.6 0 1 56.56 182.93"
/>
<path stroke="#a09c97" vector-effect="non-scaling-stroke" d="
  M 93.55 182.26
  L 93.28 164.02
  Q 93.22 160.45 90.58 162.80
  L 84.79 167.95
  A 0.65 0.64 49.9 0 0 84.72 168.85
  Q 86.23 170.75 87.56 168.56
  Q 88.10 167.68 90.25 166.54
  A 0.30 0.28 76.3 0 1 90.67 166.81
  L 90.51 182.88
  A 0.63 0.60 -89.5 0 1 89.91 183.50
  L 86.50 183.50
  A 0.76 0.65 7.8 0 0 85.80 183.95
  Q 85.57 184.63 85.79 185.30
  A 0.76 0.67 -9.0 0 0 86.50 185.75
  L 97.19 185.70
  A 0.65 0.62 5.0 0 0 97.81 185.20
  Q 98.26 182.86 95.31 183.61
  A 1.42 1.41 82.4 0 1 93.55 182.26"
/>
<path stroke="#a09c97" vector-effect="non-scaling-stroke" d="
  M 104.89 183.95
  A 1.95 1.95 0.0 0 0 102.94 182.00
  A 1.95 1.95 0.0 0 0 100.99 183.95
  A 1.95 1.95 0.0 0 0 102.94 185.90
  A 1.95 1.95 0.0 0 0 104.89 183.95"
/>
<path stroke="#a09c97" vector-effect="non-scaling-stroke" d="
  M 58.15 28.16
  Q 54.72 33.08 51.13 38.02
  Q 50.78 38.50 51.37 38.50
  L 62.94 38.45
  A 0.52 0.52 0.0 0 0 63.45 37.94
  L 63.49 21.28
  Q 63.50 20.55 63.07 21.15
  Q 60.41 24.91 58.15 28.16"
/>
<path stroke="#918b87" vector-effect="non-scaling-stroke" d="
  M 139.6714 32.8884
  A 10.12 4.76 117.6 0 0 148.5783 26.1253
  A 10.12 4.76 117.6 0 0 149.0486 14.9516
  A 10.12 4.76 117.6 0 0 140.1417 21.7147
  A 10.12 4.76 117.6 0 0 139.6714 32.8884"
/>
<path stroke="#a09c97" vector-effect="non-scaling-stroke" d="
  M 134.06 109.59
  Q 124.76 106.94 119.56 116.31
  Q 118.58 118.09 118.24 121.06
  A 0.47 0.45 -86.0 0 0 118.68 121.58
  L 141.85 121.74
  A 0.67 0.66 89.6 0 0 142.51 121.06
  Q 142.42 116.67 140.19 113.59
  Q 138.13 110.74 134.06 109.59"
/>
<path stroke="#a09c97" vector-effect="non-scaling-stroke" d="
  M 133.9832 183.6700
  A 9.65 5.43 90.1 0 0 139.4300 174.0295
  A 9.65 5.43 90.1 0 0 134.0168 164.3700
  A 9.65 5.43 90.1 0 0 128.5700 174.0105
  A 9.65 5.43 90.1 0 0 133.9832 183.6700"
/>
</g>
<path fill="#fff7ec" d="
  M 0.00 0.00
  L 189.00 0.00
  L 189.00 189.00
  L 0.00 189.00
  L 0.00 0.00
  Z
  M 132.57 6.20
  A 2.28 2.28 0.0 0 0 130.29 3.92
  A 2.28 2.28 0.0 0 0 128.01 6.20
  A 2.28 2.28 0.0 0 0 130.29 8.48
  A 2.28 2.28 0.0 0 0 132.57 6.20
  Z
  M 157.5262 5.2816
  A 0.26 0.26 0.0 0 0 157.2698 5.0180
  L 143.2512 4.8223
  A 0.26 0.26 0.0 0 0 142.9876 5.0786
  L 142.9538 7.4984
  A 0.26 0.26 0.0 0 0 143.2102 7.7620
  L 157.2288 7.9577
  A 0.26 0.26 0.0 0 0 157.4924 7.7014
  L 157.5262 5.2816
  Z
  M 22.07 18.30
  Q 30.05 18.13 31.75 18.25
  Q 38.76 18.73 37.13 11.99
  A 0.65 0.64 -6.8 0 0 36.50 11.50
  L 17.07 11.56
  A 0.60 0.59 4.5 0 0 16.48 12.06
  L 13.33 31.90
  A 0.95 0.95 16.8 0 0 13.88 32.92
  Q 17.02 34.30 20.71 33.25
  Q 25.84 31.78 28.98 34.49
  Q 31.66 36.82 31.52 41.27
  Q 31.26 49.37 22.53 49.09
  Q 20.83 49.04 18.81 48.06
  Q 17.03 47.20 15.21 46.44
  A 1.06 0.97 39.8 0 0 14.31 46.48
  Q 12.17 47.72 11.18 50.03
  A 0.75 0.73 32.5 0 0 11.37 50.85
  Q 16.24 55.25 22.06 55.44
  Q 33.36 55.80 37.25 46.90
  Q 39.58 41.57 38.36 36.39
  Q 36.92 30.26 30.65 27.77
  Q 28.38 26.87 25.73 26.83
  Q 23.21 26.79 20.67 27.26
  A 0.38 0.37 -1.2 0 1 20.22 26.84
  L 21.45 18.81
  A 0.65 0.60 3.7 0 1 22.07 18.30
  Z
  M 70.31 44.32
  L 74.06 44.12
  A 0.86 0.85 10.2 0 0 74.79 43.62
  Q 75.49 42.04 75.07 39.36
  A 0.98 0.79 -2.6 0 0 74.15 38.68
  L 70.31 38.56
  A 0.62 0.52 -89.1 0 1 69.81 37.94
  L 69.69 12.06
  A 0.52 0.50 90.0 0 0 69.19 11.54
  L 64.09 11.52
  A 2.08 1.98 -71.3 0 0 62.45 12.38
  L 43.60 38.41
  A 1.34 0.77 -42.8 0 0 43.32 39.31
  L 44.08 43.25
  A 1.40 1.21 -4.5 0 0 45.41 44.23
  L 62.98 44.44
  A 0.53 0.52 0.6 0 1 63.50 44.96
  L 63.50 53.97
  A 0.95 0.88 89.7 0 0 64.39 54.92
  L 69.07 54.88
  A 0.58 0.52 -88.9 0 0 69.59 54.32
  L 69.81 44.82
  A 0.52 0.52 -0.1 0 1 70.31 44.32
  Z
  M 106.14 27.15
  Q 106.56 26.34 106.81 27.23
  L 108.82 34.20
  Q 109.54 36.72 111.99 35.50
  Q 114.73 34.14 116.55 31.03
  Q 117.11 30.07 116.49 30.12
  Q 116.23 30.14 115.97 30.41
  Q 115.10 31.32 114.31 32.31
  Q 112.39 34.76 111.75 32.25
  L 109.37 22.98
  A 1.49 1.43 51.0 0 1 109.45 22.04
  Q 110.75 19.24 112.73 17.37
  A 2.63 2.62 32.3 0 1 115.34 16.79
  Q 118.21 17.71 118.68 15.49
  A 1.34 1.20 37.3 0 0 118.50 14.56
  Q 117.13 12.41 115.06 13.81
  Q 111.53 16.21 109.56 19.73
  Q 108.70 21.26 108.50 19.51
  Q 108.13 16.16 105.80 13.90
  A 0.97 0.95 -28.3 0 0 104.94 13.65
  L 99.93 14.59
  Q 98.99 14.76 99.52 15.14
  Q 99.73 15.28 100.25 15.25
  Q 104.03 15.05 105.01 18.89
  Q 105.67 21.43 106.16 24.01
  A 1.54 1.46 54.4 0 1 106.03 24.95
  Q 104.12 28.86 100.69 32.77
  A 1.22 1.20 -52.2 0 1 99.10 32.98
  Q 96.13 31.00 95.58 33.75
  A 1.24 1.18 -56.7 0 0 95.75 34.68
  Q 96.66 36.01 98.14 35.83
  Q 99.19 35.71 100.46 34.53
  Q 104.02 31.24 106.14 27.15
  Z
  M 125.73 16.14
  Q 125.89 17.42 125.43 18.98
  Q 123.62 25.03 121.96 31.11
  Q 121.40 33.13 121.53 34.07
  Q 121.85 36.44 125.00 35.50
  Q 127.81 34.66 130.09 30.83
  Q 130.46 30.21 129.93 30.24
  A 0.89 0.64 -68.1 0 0 129.35 30.61
  Q 127.85 32.67 126.56 33.31
  Q 125.82 33.68 125.43 32.96
  A 1.42 0.99 -58.8 0 1 125.37 32.02
  L 130.36 14.37
  A 0.58 0.57 -86.2 0 0 129.73 13.63
  Q 126.85 14.09 123.61 14.67
  Q 121.81 14.99 122.74 15.32
  Q 123.31 15.51 125.10 15.57
  A 0.66 0.65 -2.6 0 1 125.73 16.14
  Z
  M 152.39 33.29
  Q 151.19 33.95 151.02 32.71
  Q 150.95 32.19 151.18 31.30
  Q 153.44 22.76 156.06 14.33
  A 0.42 0.42 13.9 0 0 155.74 13.80
  Q 152.81 13.22 151.90 15.77
  Q 151.36 17.31 151.01 15.71
  Q 150.72 14.36 149.20 13.94
  Q 145.85 13.02 143.04 15.03
  Q 136.23 19.89 134.61 27.83
  Q 134.04 30.68 134.60 32.66
  Q 135.57 36.06 139.13 35.71
  Q 141.25 35.51 143.38 33.83
  Q 145.25 32.37 146.76 30.49
  Q 148.44 28.40 147.68 30.97
  Q 145.91 36.92 150.46 35.51
  Q 151.89 35.07 153.07 33.81
  Q 153.91 32.91 155.19 31.44
  Q 155.45 31.14 155.45 30.90
  Q 155.48 30.29 154.89 30.81
  Q 154.04 31.56 153.33 32.44
  Q 152.82 33.06 152.39 33.29
  Z
  M 167.89 21.52
  Q 167.48 22.27 166.91 22.91
  Q 165.41 24.60 165.78 23.47
  Q 167.27 18.95 168.32 14.31
  A 0.38 0.35 -87.3 0 0 167.93 13.84
  L 160.80 15.05
  Q 160.09 15.16 160.75 15.42
  Q 161.32 15.65 162.00 15.50
  Q 164.66 14.91 164.00 17.25
  L 159.14 34.52
  A 0.56 0.53 -73.0 0 0 159.47 35.19
  Q 161.10 35.76 162.32 34.77
  A 1.67 1.20 85.6 0 0 162.81 33.96
  Q 164.71 26.52 169.38 20.42
  Q 171.52 17.63 173.87 16.62
  Q 176.86 15.35 176.00 18.48
  Q 174.21 25.08 172.38 31.64
  Q 171.88 33.42 172.11 34.40
  Q 172.63 36.68 175.56 35.31
  Q 178.32 34.02 180.12 30.74
  A 0.42 0.28 -57.9 0 0 180.11 30.28
  Q 179.94 30.15 179.72 30.46
  Q 178.54 32.04 176.94 33.19
  Q 175.08 34.52 175.75 32.25
  Q 177.62 25.97 179.26 19.62
  Q 179.84 17.39 179.75 16.20
  Q 179.54 13.28 176.82 13.56
  Q 175.06 13.73 173.13 15.27
  Q 169.95 17.82 167.89 21.52
  Z
  M 128.86 48.29
  L 131.78 45.54
  A 0.38 0.34 -56.2 0 0 131.70 44.92
  L 126.43 43.30
  A 0.57 0.54 -71.1 0 0 125.76 43.65
  Q 122.06 53.32 114.69 59.19
  Q 112.89 60.62 114.76 61.14
  Q 115.24 61.28 115.59 61.63
  Q 117.14 63.20 118.24 61.71
  Q 119.25 60.35 119.30 60.29
  Q 122.53 56.84 125.49 52.83
  A 1.41 1.34 -71.0 0 1 126.59 52.26
  L 160.06 52.55
  A 0.64 0.59 5.5 0 0 160.68 52.08
  Q 160.99 50.54 160.59 49.04
  A 0.64 0.63 -9.7 0 0 159.94 48.59
  Q 144.50 49.48 129.05 48.71
  Q 128.44 48.68 128.86 48.29
  Z
  M 133.57 55.72
  Q 130.17 55.61 125.70 55.79
  A 0.71 0.60 -0.2 0 0 125.03 56.36
  L 124.88 59.24
  A 0.65 0.41 -1.2 0 0 125.57 59.66
  Q 139.49 58.87 153.42 59.47
  Q 153.51 59.48 154.56 59.65
  Q 156.55 59.99 155.70 56.15
  A 0.62 0.62 82.8 0 0 155.07 55.66
  Q 144.00 56.07 133.57 55.72
  Z
  M 151.44 67.32
  Q 151.56 78.26 152.75 83.75
  Q 153.91 89.08 156.06 91.69
  Q 158.82 95.02 161.12 91.39
  Q 162.75 88.83 163.74 85.79
  A 1.00 1.00 16.7 0 0 163.06 84.53
  Q 161.73 84.15 160.80 82.93
  Q 160.05 81.94 159.80 83.22
  L 159.11 86.70
  Q 158.73 88.57 158.07 86.71
  Q 154.11 75.60 156.54 63.81
  A 0.66 0.65 -85.5 0 0 155.87 63.02
  Q 137.78 63.79 119.31 63.33
  A 0.68 0.65 9.5 0 0 118.64 63.78
  Q 118.21 65.13 118.64 66.47
  A 0.73 0.65 -7.5 0 0 119.32 66.93
  L 150.93 66.81
  A 0.51 0.50 89.4 0 1 151.44 67.32
  Z
  M 135.31 84.93
  Q 135.21 78.27 135.25 71.60
  Q 135.25 70.91 135.53 70.46
  Q 135.86 69.94 136.34 69.54
  Q 136.79 69.18 136.25 69.16
  L 131.69 69.02
  A 0.55 0.49 89.9 0 0 131.19 69.58
  L 131.31 85.01
  A 0.97 0.97 -1.5 0 1 130.38 85.99
  L 124.02 86.27
  A 0.50 0.50 -1.1 0 1 123.50 85.77
  L 123.50 74.23
  A 2.05 2.04 67.9 0 1 124.11 72.77
  Q 125.37 71.51 123.74 71.59
  Q 121.78 71.69 119.81 71.79
  A 0.53 0.49 88.9 0 0 119.34 72.32
  L 119.34 89.68
  A 0.46 0.44 87.7 0 0 119.82 90.14
  L 142.19 88.35
  A 0.39 0.37 -86.9 0 1 142.58 88.81
  Q 141.98 91.95 144.76 91.59
  Q 145.21 91.53 145.72 91.69
  Q 147.13 92.15 147.04 90.50
  Q 146.56 82.56 146.79 74.61
  Q 146.81 74.07 147.07 73.59
  Q 147.33 73.11 147.59 72.63
  A 0.31 0.30 13.9 0 0 147.32 72.19
  L 143.06 72.09
  A 0.47 0.46 90.0 0 0 142.59 72.57
  L 142.73 84.20
  A 0.66 0.66 86.7 0 1 142.14 84.87
  L 135.81 85.43
  A 0.50 0.45 87.4 0 1 135.31 84.93
  Z
  M 67.60 124.10
  L 85.39 154.41
  Q 86.48 156.25 88.65 156.25
  L 102.30 156.25
  Q 102.81 156.25 102.54 155.81
  L 77.77 115.47
  A 0.83 0.81 46.4 0 1 77.78 114.61
  L 101.90 77.75
  Q 102.22 77.25 101.63 77.25
  L 88.85 77.25
  Q 86.99 77.25 86.06 78.77
  L 68.44 107.52
  A 0.31 0.31 -44.7 0 1 67.91 107.52
  L 50.16 78.19
  A 1.50 1.47 -12.9 0 0 49.00 77.48
  Q 41.61 76.90 33.99 77.46
  A 0.30 0.29 71.1 0 0 33.77 77.92
  L 57.25 114.87
  A 1.44 1.44 -45.5 0 1 57.26 116.42
  L 32.76 155.58
  A 0.30 0.30 -71.7 0 0 32.99 156.04
  Q 37.80 156.39 42.63 156.28
  Q 42.70 156.28 44.85 156.40
  Q 47.27 156.54 48.44 154.69
  Q 57.77 139.81 67.04 124.10
  A 0.32 0.32 46.3 0 1 67.60 124.10
  Z
  M 117.58 130.85
  A 0.73 0.73 -4.6 0 1 118.29 130.02
  Q 134.30 129.63 149.40 129.74
  Q 149.46 129.74 151.09 129.88
  Q 153.89 130.10 154.19 127.19
  Q 154.59 123.25 153.51 118.10
  Q 151.01 106.19 141.69 101.83
  Q 133.24 97.87 123.53 100.34
  Q 116.04 102.25 111.11 108.29
  Q 106.76 113.62 105.29 121.15
  Q 103.62 129.69 106.25 138.25
  Q 111.83 156.45 131.25 157.10
  Q 143.29 157.50 152.97 149.00
  A 1.26 1.16 -39.5 0 0 153.19 147.37
  L 149.80 142.93
  Q 148.54 141.27 146.37 142.15
  Q 144.14 143.06 141.67 144.39
  Q 136.93 146.94 131.79 146.71
  Q 127.76 146.53 124.61 144.66
  Q 120.96 142.49 119.56 138.69
  Q 118.06 134.59 117.58 130.85
  Z
  M 76.00 173.08
  Q 80.51 170.57 78.26 165.39
  Q 77.11 162.76 74.24 162.29
  Q 67.38 161.18 65.27 167.70
  A 0.84 0.83 13.7 0 0 65.93 168.78
  Q 67.47 169.03 68.11 167.84
  Q 69.00 166.23 69.04 166.18
  Q 71.40 163.49 74.11 164.92
  Q 76.26 166.06 76.30 168.58
  Q 76.36 172.24 72.00 172.48
  A 1.15 0.81 8.9 0 0 71.19 172.88
  Q 70.67 173.66 71.17 174.38
  A 1.13 0.78 -11.2 0 0 72.00 174.74
  Q 74.18 174.79 75.59 176.12
  Q 76.94 177.40 76.84 179.37
  Q 76.69 182.11 73.94 183.19
  Q 70.78 184.43 68.49 182.06
  Q 68.20 181.76 67.73 180.81
  Q 67.40 180.12 66.83 179.62
  A 1.20 1.19 -26.2 0 0 65.94 179.32
  Q 64.14 179.45 64.84 181.18
  Q 66.76 185.94 72.00 185.92
  Q 75.10 185.91 77.21 184.16
  Q 79.28 182.44 79.56 179.63
  Q 79.96 175.65 76.01 173.54
  Q 75.59 173.31 76.00 173.08
  Z
  M 119.96 173.38
  Q 122.02 171.69 122.56 169.27
  Q 123.12 166.83 121.89 164.88
  Q 120.57 162.78 117.74 162.31
  Q 111.57 161.30 109.33 166.60
  Q 108.97 167.46 109.09 168.07
  Q 109.32 169.25 110.85 168.74
  A 1.04 0.85 -87.1 0 0 111.45 168.08
  Q 112.53 164.68 115.50 164.50
  Q 119.35 164.26 120.00 167.50
  Q 120.70 171.00 117.47 172.20
  Q 117.02 172.36 115.87 172.38
  Q 114.30 172.39 114.56 173.70
  A 1.48 1.48 88.3 0 0 115.79 174.86
  Q 119.92 175.47 120.42 178.30
  Q 120.71 179.93 119.80 181.45
  Q 118.82 183.09 116.94 183.44
  Q 112.62 184.24 110.99 180.16
  A 1.08 0.90 83.5 0 0 110.34 179.54
  Q 108.36 179.02 108.40 180.50
  Q 108.42 181.27 109.03 182.26
  Q 112.11 187.26 118.30 185.51
  Q 122.82 184.23 123.18 179.49
  Q 123.50 175.43 120.03 173.88
  A 0.30 0.29 37.5 0 1 119.96 173.38
  Z
  M 134.0100 186.1800
  A 12.17 8.40 90.0 0 0 142.4100 174.0100
  A 12.17 8.40 90.0 0 0 134.0100 161.8400
  A 12.17 8.40 90.0 0 0 125.6100 174.0100
  A 12.17 8.40 90.0 0 0 134.0100 186.1800
  Z
  M 56.56 182.93
  L 56.50 162.92
  A 0.65 0.64 -86.5 0 0 55.94 162.28
  Q 54.26 162.05 53.26 163.05
  Q 52.62 163.70 52.54 163.76
  Q 50.61 165.34 48.71 166.95
  Q 46.55 168.77 48.77 169.60
  A 0.94 0.82 32.7 0 0 49.66 169.47
  L 53.16 166.47
  Q 53.54 166.14 53.54 166.62
  L 53.75 182.85
  A 0.66 0.64 -0.4 0 1 53.09 183.50
  L 49.50 183.50
  A 0.80 0.68 8.9 0 0 48.78 183.94
  Q 48.48 184.72 48.92 185.37
  A 1.08 0.83 -13.1 0 0 49.75 185.75
  Q 53.95 185.75 58.15 185.75
  Q 58.24 185.75 59.34 185.82
  Q 61.47 185.94 60.87 184.03
  A 0.74 0.69 -7.6 0 0 60.19 183.55
  L 57.07 183.45
  A 0.52 0.52 0.6 0 1 56.56 182.93
  Z
  M 93.55 182.26
  L 93.28 164.02
  Q 93.22 160.45 90.58 162.80
  L 84.79 167.95
  A 0.65 0.64 49.9 0 0 84.72 168.85
  Q 86.23 170.75 87.56 168.56
  Q 88.10 167.68 90.25 166.54
  A 0.30 0.28 76.3 0 1 90.67 166.81
  L 90.51 182.88
  A 0.63 0.60 -89.5 0 1 89.91 183.50
  L 86.50 183.50
  A 0.76 0.65 7.8 0 0 85.80 183.95
  Q 85.57 184.63 85.79 185.30
  A 0.76 0.67 -9.0 0 0 86.50 185.75
  L 97.19 185.70
  A 0.65 0.62 5.0 0 0 97.81 185.20
  Q 98.26 182.86 95.31 183.61
  A 1.42 1.41 82.4 0 1 93.55 182.26
  Z
  M 104.89 183.95
  A 1.95 1.95 0.0 0 0 102.94 182.00
  A 1.95 1.95 0.0 0 0 100.99 183.95
  A 1.95 1.95 0.0 0 0 102.94 185.90
  A 1.95 1.95 0.0 0 0 104.89 183.95
  Z"
/>
<circle fill="#221f21" cx="130.29" cy="6.20" r="2.28"/>
<rect fill="#221f21" x="-7.27" y="-1.47" transform="translate(150.24,6.39) rotate(0.8)" width="14.54" height="2.94" rx="0.26"/>
<path fill="#414042" d="
  M 21.45 18.81
  L 20.22 26.84
  A 0.38 0.37 -1.2 0 0 20.67 27.26
  Q 23.21 26.79 25.73 26.83
  Q 28.38 26.87 30.65 27.77
  Q 36.92 30.26 38.36 36.39
  Q 39.58 41.57 37.25 46.90
  Q 33.36 55.80 22.06 55.44
  Q 16.24 55.25 11.37 50.85
  A 0.75 0.73 32.5 0 1 11.18 50.03
  Q 12.17 47.72 14.31 46.48
  A 1.06 0.97 39.8 0 1 15.21 46.44
  Q 17.03 47.20 18.81 48.06
  Q 20.83 49.04 22.53 49.09
  Q 31.26 49.37 31.52 41.27
  Q 31.66 36.82 28.98 34.49
  Q 25.84 31.78 20.71 33.25
  Q 17.02 34.30 13.88 32.92
  A 0.95 0.95 16.8 0 1 13.33 31.90
  L 16.48 12.06
  A 0.60 0.59 4.5 0 1 17.07 11.56
  L 36.50 11.50
  A 0.65 0.64 -6.8 0 1 37.13 11.99
  Q 38.76 18.73 31.75 18.25
  Q 30.05 18.13 22.07 18.30
  A 0.65 0.60 3.7 0 0 21.45 18.81
  Z"
/>
<path fill="#414042" d="
  M 69.81 44.82
  L 69.59 54.32
  A 0.58 0.52 -88.9 0 1 69.07 54.88
  L 64.39 54.92
  A 0.95 0.88 89.7 0 1 63.50 53.97
  L 63.50 44.96
  A 0.53 0.52 0.6 0 0 62.98 44.44
  L 45.41 44.23
  A 1.40 1.21 -4.5 0 1 44.08 43.25
  L 43.32 39.31
  A 1.34 0.77 -42.8 0 1 43.60 38.41
  L 62.45 12.38
  A 2.08 1.98 -71.3 0 1 64.09 11.52
  L 69.19 11.54
  A 0.52 0.50 90.0 0 1 69.69 12.06
  L 69.81 37.94
  A 0.62 0.52 -89.1 0 0 70.31 38.56
  L 74.15 38.68
  A 0.98 0.79 -2.6 0 1 75.07 39.36
  Q 75.49 42.04 74.79 43.62
  A 0.86 0.85 10.2 0 1 74.06 44.12
  L 70.31 44.32
  A 0.52 0.52 -0.4 0 0 69.81 44.82
  Z
  M 58.15 28.16
  Q 54.72 33.08 51.13 38.02
  Q 50.78 38.50 51.37 38.50
  L 62.94 38.45
  A 0.52 0.52 0.0 0 0 63.45 37.94
  L 63.49 21.28
  Q 63.50 20.55 63.07 21.15
  Q 60.41 24.91 58.15 28.16
  Z"
/>
<path fill="#221f21" d="
  M 106.14 27.15
  Q 104.02 31.24 100.46 34.53
  Q 99.19 35.71 98.14 35.83
  Q 96.66 36.01 95.75 34.68
  A 1.24 1.18 -56.7 0 1 95.58 33.75
  Q 96.13 31.00 99.10 32.98
  A 1.22 1.20 -52.2 0 0 100.69 32.77
  Q 104.12 28.86 106.03 24.95
  A 1.54 1.46 54.4 0 0 106.16 24.01
  Q 105.67 21.43 105.01 18.89
  Q 104.03 15.05 100.25 15.25
  Q 99.73 15.28 99.52 15.14
  Q 98.99 14.76 99.93 14.59
  L 104.94 13.65
  A 0.97 0.95 -28.3 0 1 105.80 13.90
  Q 108.13 16.16 108.50 19.51
  Q 108.70 21.26 109.56 19.73
  Q 111.53 16.21 115.06 13.81
  Q 117.13 12.41 118.50 14.56
  A 1.34 1.20 37.3 0 1 118.68 15.49
  Q 118.21 17.71 115.34 16.79
  A 2.63 2.62 32.3 0 0 112.73 17.37
  Q 110.75 19.24 109.45 22.04
  A 1.49 1.43 51.0 0 0 109.37 22.98
  L 111.75 32.25
  Q 112.39 34.76 114.31 32.31
  Q 115.10 31.32 115.97 30.41
  Q 116.23 30.14 116.49 30.12
  Q 117.11 30.07 116.55 31.03
  Q 114.73 34.14 111.99 35.50
  Q 109.54 36.72 108.82 34.20
  L 106.81 27.23
  Q 106.56 26.34 106.14 27.15
  Z"
/>
<path fill="#221f21" d="
  M 125.73 16.14
  A 0.66 0.65 -2.6 0 0 125.10 15.57
  Q 123.31 15.51 122.74 15.32
  Q 121.81 14.99 123.61 14.67
  Q 126.85 14.09 129.73 13.63
  A 0.58 0.57 -86.2 0 1 130.36 14.37
  L 125.37 32.02
  A 1.42 0.99 -58.8 0 0 125.43 32.96
  Q 125.82 33.68 126.56 33.31
  Q 127.85 32.67 129.35 30.61
  A 0.89 0.64 -68.1 0 1 129.93 30.24
  Q 130.46 30.21 130.09 30.83
  Q 127.81 34.66 125.00 35.50
  Q 121.85 36.44 121.53 34.07
  Q 121.40 33.13 121.96 31.11
  Q 123.62 25.03 125.43 18.98
  Q 125.89 17.42 125.73 16.14
  Z"
/>
<path fill="#221f21" d="
  M 153.33 32.44
  Q 154.04 31.56 154.89 30.81
  Q 155.48 30.29 155.45 30.90
  Q 155.45 31.14 155.19 31.44
  Q 153.91 32.91 153.07 33.81
  Q 151.89 35.07 150.46 35.51
  Q 145.91 36.92 147.68 30.97
  Q 148.44 28.40 146.76 30.49
  Q 145.25 32.37 143.38 33.83
  Q 141.25 35.51 139.13 35.71
  Q 135.57 36.06 134.60 32.66
  Q 134.04 30.68 134.61 27.83
  Q 136.23 19.89 143.04 15.03
  Q 145.85 13.02 149.20 13.94
  Q 150.72 14.36 151.01 15.71
  Q 151.36 17.31 151.90 15.77
  Q 152.81 13.22 155.74 13.80
  A 0.42 0.42 13.9 0 1 156.06 14.33
  Q 153.44 22.76 151.18 31.30
  Q 150.95 32.19 151.02 32.71
  Q 151.19 33.95 152.39 33.29
  Q 152.82 33.06 153.33 32.44
  Z
  M 139.6714 32.8884
  A 10.12 4.76 117.6 0 0 148.5783 26.1253
  A 10.12 4.76 117.6 0 0 149.0486 14.9516
  A 10.12 4.76 117.6 0 0 140.1417 21.7147
  A 10.12 4.76 117.6 0 0 139.6714 32.8884
  Z"
/>
<path fill="#221f21" d="
  M 167.89 21.52
  Q 169.95 17.82 173.13 15.27
  Q 175.06 13.73 176.82 13.56
  Q 179.54 13.28 179.75 16.20
  Q 179.84 17.39 179.26 19.62
  Q 177.62 25.97 175.75 32.25
  Q 175.08 34.52 176.94 33.19
  Q 178.54 32.04 179.72 30.46
  Q 179.94 30.15 180.11 30.28
  A 0.42 0.28 -57.9 0 1 180.12 30.74
  Q 178.32 34.02 175.56 35.31
  Q 172.63 36.68 172.11 34.40
  Q 171.88 33.42 172.38 31.64
  Q 174.21 25.08 176.00 18.48
  Q 176.86 15.35 173.87 16.62
  Q 171.52 17.63 169.38 20.42
  Q 164.71 26.52 162.81 33.96
  A 1.67 1.20 85.6 0 1 162.32 34.77
  Q 161.10 35.76 159.47 35.19
  A 0.56 0.53 -73.0 0 1 159.14 34.52
  L 164.00 17.25
  Q 164.66 14.91 162.00 15.50
  Q 161.32 15.65 160.75 15.42
  Q 160.09 15.16 160.80 15.05
  L 167.93 13.84
  A 0.38 0.35 -87.3 0 1 168.32 14.31
  Q 167.27 18.95 165.78 23.47
  Q 165.41 24.60 166.91 22.91
  Q 167.48 22.27 167.89 21.52
  Z"
/>
<ellipse fill="#fff7ec" cx="0.00" cy="0.00" transform="translate(144.36,23.92) rotate(117.6)" rx="10.12" ry="4.76"/>
<path fill="#fff7ec" d="
  M 58.15 28.16
  Q 60.41 24.91 63.07 21.15
  Q 63.50 20.55 63.49 21.28
  L 63.45 37.94
  A 0.52 0.52 -69.8 0 1 62.94 38.45
  L 51.37 38.50
  Q 50.78 38.50 51.13 38.02
  Q 54.72 33.08 58.15 28.16
  Z"
/>
<path fill="#414042" d="
  M 129.05 48.71
  Q 144.50 49.48 159.94 48.59
  A 0.64 0.63 -9.7 0 1 160.59 49.04
  Q 160.99 50.54 160.68 52.08
  A 0.64 0.59 5.5 0 1 160.06 52.55
  L 126.59 52.26
  A 1.41 1.34 -71.0 0 0 125.49 52.83
  Q 122.53 56.84 119.30 60.29
  Q 119.25 60.35 118.24 61.71
  Q 117.14 63.20 115.59 61.63
  Q 115.24 61.28 114.76 61.14
  Q 112.89 60.62 114.69 59.19
  Q 122.06 53.32 125.76 43.65
  A 0.57 0.54 -71.1 0 1 126.43 43.30
  L 131.70 44.92
  A 0.38 0.34 -56.2 0 1 131.78 45.54
  L 128.86 48.29
  Q 128.44 48.68 129.05 48.71
  Z"
/>
<path fill="#414042" d="
  M 133.57 55.72
  Q 144.00 56.07 155.07 55.66
  A 0.62 0.62 82.8 0 1 155.70 56.15
  Q 156.55 59.99 154.56 59.65
  Q 153.51 59.48 153.42 59.47
  Q 139.49 58.87 125.57 59.66
  A 0.65 0.41 -1.2 0 1 124.88 59.24
  L 125.03 56.36
  A 0.71 0.60 -0.2 0 1 125.70 55.79
  Q 130.17 55.61 133.57 55.72
  Z"
/>
<path fill="#414042" d="
  M 150.93 66.81
  L 119.32 66.93
  A 0.73 0.65 -7.5 0 1 118.64 66.47
  Q 118.21 65.13 118.64 63.78
  A 0.68 0.65 9.5 0 1 119.31 63.33
  Q 137.78 63.79 155.87 63.02
  A 0.66 0.65 -85.5 0 1 156.54 63.81
  Q 154.11 75.60 158.07 86.71
  Q 158.73 88.57 159.11 86.70
  L 159.80 83.22
  Q 160.05 81.94 160.80 82.93
  Q 161.73 84.15 163.06 84.53
  A 1.00 1.00 16.7 0 1 163.74 85.79
  Q 162.75 88.83 161.12 91.39
  Q 158.82 95.02 156.06 91.69
  Q 153.91 89.08 152.75 83.75
  Q 151.56 78.26 151.44 67.32
  A 0.51 0.50 89.4 0 0 150.93 66.81
  Z"
/>
<path fill="#414042" d="
  M 135.81 85.43
  L 142.14 84.87
  A 0.66 0.66 86.7 0 0 142.73 84.20
  L 142.59 72.57
  A 0.47 0.46 90.0 0 1 143.06 72.09
  L 147.32 72.19
  A 0.31 0.30 13.9 0 1 147.59 72.63
  Q 147.33 73.11 147.07 73.59
  Q 146.81 74.07 146.79 74.61
  Q 146.56 82.56 147.04 90.50
  Q 147.13 92.15 145.72 91.69
  Q 145.21 91.53 144.76 91.59
  Q 141.98 91.95 142.58 88.81
  A 0.39 0.37 -86.9 0 0 142.19 88.35
  L 119.82 90.14
  A 0.46 0.44 87.7 0 1 119.34 89.68
  L 119.34 72.32
  A 0.53 0.49 88.9 0 1 119.81 71.79
  Q 121.78 71.69 123.74 71.59
  Q 125.37 71.51 124.11 72.77
  A 2.05 2.04 67.9 0 0 123.50 74.23
  L 123.50 85.77
  A 0.50 0.50 -1.1 0 0 124.02 86.27
  L 130.38 85.99
  A 0.97 0.97 -1.5 0 0 131.31 85.01
  L 131.19 69.58
  A 0.55 0.49 89.9 0 1 131.69 69.02
  L 136.25 69.16
  Q 136.79 69.18 136.34 69.54
  Q 135.86 69.94 135.53 70.46
  Q 135.25 70.91 135.25 71.60
  Q 135.21 78.27 135.31 84.93
  A 0.50 0.45 87.4 0 0 135.81 85.43
  Z"
/>
<path fill="#414042" d="
  M 67.60 124.10
  A 0.32 0.32 45.4 0 0 67.04 124.10
  Q 57.77 139.81 48.44 154.69
  Q 47.27 156.54 44.85 156.40
  Q 42.70 156.28 42.63 156.28
  Q 37.80 156.39 32.99 156.04
  A 0.30 0.30 -71.7 0 1 32.76 155.58
  L 57.26 116.42
  A 1.44 1.44 -45.5 0 0 57.25 114.87
  L 33.77 77.92
  A 0.30 0.29 71.1 0 1 33.99 77.46
  Q 41.61 76.90 49.00 77.48
  A 1.50 1.47 -12.9 0 1 50.16 78.19
  L 67.91 107.52
  A 0.31 0.31 -44.7 0 0 68.44 107.52
  L 86.06 78.77
  Q 86.99 77.25 88.85 77.25
  L 101.63 77.25
  Q 102.22 77.25 101.90 77.75
  L 77.78 114.61
  A 0.83 0.81 46.4 0 0 77.77 115.47
  L 102.54 155.81
  Q 102.81 156.25 102.30 156.25
  L 88.65 156.25
  Q 86.48 156.25 85.39 154.41
  L 67.60 124.10
  Z"
/>
<path fill="#414042" d="
  M 117.58 130.85
  Q 118.06 134.59 119.56 138.69
  Q 120.96 142.49 124.61 144.66
  Q 127.76 146.53 131.79 146.71
  Q 136.93 146.94 141.67 144.39
  Q 144.14 143.06 146.37 142.15
  Q 148.54 141.27 149.80 142.93
  L 153.19 147.37
  A 1.26 1.16 -39.5 0 1 152.97 149.00
  Q 143.29 157.50 131.25 157.10
  Q 111.83 156.45 106.25 138.25
  Q 103.62 129.69 105.29 121.15
  Q 106.76 113.62 111.11 108.29
  Q 116.04 102.25 123.53 100.34
  Q 133.24 97.87 141.69 101.83
  Q 151.01 106.19 153.51 118.10
  Q 154.59 123.25 154.19 127.19
  Q 153.89 130.10 151.09 129.88
  Q 149.46 129.74 149.40 129.74
  Q 134.30 129.63 118.29 130.02
  A 0.73 0.73 -4.6 0 0 117.58 130.85
  Z
  M 134.06 109.59
  Q 124.76 106.94 119.56 116.31
  Q 118.58 118.09 118.24 121.06
  A 0.47 0.45 -86.0 0 0 118.68 121.58
  L 141.85 121.74
  A 0.67 0.66 89.6 0 0 142.51 121.06
  Q 142.42 116.67 140.19 113.59
  Q 138.13 110.74 134.06 109.59
  Z"
/>
<path fill="#fff7ec" d="
  M 140.19 113.59
  Q 142.42 116.67 142.51 121.06
  A 0.67 0.66 89.6 0 1 141.85 121.74
  L 118.68 121.58
  A 0.47 0.45 -86.0 0 1 118.24 121.06
  Q 118.58 118.09 119.56 116.31
  Q 124.76 106.94 134.06 109.59
  Q 138.13 110.74 140.19 113.59
  Z"
/>
<path fill="#414042" d="
  M 76.01 173.54
  Q 79.96 175.65 79.56 179.63
  Q 79.28 182.44 77.21 184.16
  Q 75.10 185.91 72.00 185.92
  Q 66.76 185.94 64.84 181.18
  Q 64.14 179.45 65.94 179.32
  A 1.20 1.19 -26.2 0 1 66.83 179.62
  Q 67.40 180.12 67.73 180.81
  Q 68.20 181.76 68.49 182.06
  Q 70.78 184.43 73.94 183.19
  Q 76.69 182.11 76.84 179.37
  Q 76.94 177.40 75.59 176.12
  Q 74.18 174.79 72.00 174.74
  A 1.13 0.78 -11.2 0 1 71.17 174.38
  Q 70.67 173.66 71.19 172.88
  A 1.15 0.81 8.9 0 1 72.00 172.48
  Q 76.36 172.24 76.30 168.58
  Q 76.26 166.06 74.11 164.92
  Q 71.40 163.49 69.04 166.18
  Q 69.00 166.23 68.11 167.84
  Q 67.47 169.03 65.93 168.78
  A 0.84 0.83 13.7 0 1 65.27 167.70
  Q 67.38 161.18 74.24 162.29
  Q 77.11 162.76 78.26 165.39
  Q 80.51 170.57 76.00 173.08
  Q 75.59 173.31 76.01 173.54
  Z"
/>
<path fill="#414042" d="
  M 120.03 173.88
  Q 123.50 175.43 123.18 179.49
  Q 122.82 184.23 118.30 185.51
  Q 112.11 187.26 109.03 182.26
  Q 108.42 181.27 108.40 180.50
  Q 108.36 179.02 110.34 179.54
  A 1.08 0.90 83.5 0 1 110.99 180.16
  Q 112.62 184.24 116.94 183.44
  Q 118.82 183.09 119.80 181.45
  Q 120.71 179.93 120.42 178.30
  Q 119.92 175.47 115.79 174.86
  A 1.48 1.48 88.3 0 1 114.56 173.70
  Q 114.30 172.39 115.87 172.38
  Q 117.02 172.36 117.47 172.20
  Q 120.70 171.00 120.00 167.50
  Q 119.35 164.26 115.50 164.50
  Q 112.53 164.68 111.45 168.08
  A 1.04 0.85 -87.1 0 1 110.85 168.74
  Q 109.32 169.25 109.09 168.07
  Q 108.97 167.46 109.33 166.60
  Q 111.57 161.30 117.74 162.31
  Q 120.57 162.78 121.89 164.88
  Q 123.12 166.83 122.56 169.27
  Q 122.02 171.69 119.96 173.38
  A 0.30 0.29 37.5 0 0 120.03 173.88
  Z"
/>
<path fill="#414042" d="
  M 134.0100 186.1800
  A 12.17 8.40 90.0 0 1 125.6100 174.0100
  A 12.17 8.40 90.0 0 1 134.0100 161.8400
  A 12.17 8.40 90.0 0 1 142.4100 174.0100
  A 12.17 8.40 90.0 0 1 134.0100 186.1800
  Z
  M 133.9832 183.6700
  A 9.65 5.43 90.1 0 0 139.4300 174.0295
  A 9.65 5.43 90.1 0 0 134.0168 164.3700
  A 9.65 5.43 90.1 0 0 128.5700 174.0105
  A 9.65 5.43 90.1 0 0 133.9832 183.6700
  Z"
/>
<path fill="#414042" d="
  M 57.07 183.45
  L 60.19 183.55
  A 0.74 0.69 -7.6 0 1 60.87 184.03
  Q 61.47 185.94 59.34 185.82
  Q 58.24 185.75 58.15 185.75
  Q 53.95 185.75 49.75 185.75
  A 1.08 0.83 -13.1 0 1 48.92 185.37
  Q 48.48 184.72 48.78 183.94
  A 0.80 0.68 8.9 0 1 49.50 183.50
  L 53.09 183.50
  A 0.66 0.64 -0.4 0 0 53.75 182.85
  L 53.54 166.62
  Q 53.54 166.14 53.16 166.47
  L 49.66 169.47
  A 0.94 0.82 32.7 0 1 48.77 169.60
  Q 46.55 168.77 48.71 166.95
  Q 50.61 165.34 52.54 163.76
  Q 52.62 163.70 53.26 163.05
  Q 54.26 162.05 55.94 162.28
  A 0.65 0.64 -86.5 0 1 56.50 162.92
  L 56.56 182.93
  A 0.52 0.52 0.6 0 0 57.07 183.45
  Z"
/>
<path fill="#414042" d="
  M 93.55 182.26
  A 1.42 1.41 82.4 0 0 95.31 183.61
  Q 98.26 182.86 97.81 185.20
  A 0.65 0.62 5.0 0 1 97.19 185.70
  L 86.50 185.75
  A 0.76 0.67 -9.0 0 1 85.79 185.30
  Q 85.57 184.63 85.80 183.95
  A 0.76 0.65 7.8 0 1 86.50 183.50
  L 89.91 183.50
  A 0.63 0.60 -89.5 0 0 90.51 182.88
  L 90.67 166.81
  A 0.30 0.28 76.3 0 0 90.25 166.54
  Q 88.10 167.68 87.56 168.56
  Q 86.23 170.75 84.72 168.85
  A 0.65 0.64 49.9 0 1 84.79 167.95
  L 90.58 162.80
  Q 93.22 160.45 93.28 164.02
  L 93.55 182.26
  Z"
/>
<ellipse fill="#fff7ec" cx="0.00" cy="0.00" transform="translate(134.00,174.02) rotate(90.1)" rx="9.65" ry="5.43"/>
<circle fill="#414042" cx="102.94" cy="183.95" r="1.95"/>
</svg>
